<svg version="1.2" xmlns="http://www.w3.org/2000/svg" viewBox="0 0 275 55" width="275" height="55"><style>.a{fill:#242424}</style><path fill-rule="evenodd" class="a" d="m34.5 36.8q2.6-2.4 3.4-6.2h17.6q-1.2 10.9-8.7 17.7-7.6 6.7-18.6 6.7-8.1 0-14.5-3.5-6.5-3.6-10.1-9.9-3.6-6.3-3.6-14.1 0-7.8 3.6-14.1 3.6-6.3 10.1-9.9 6.4-3.5 14.5-3.5 10.8 0 18.3 6.5 7.5 6.5 8.9 17.1h-17.4q-1.1-3.5-3.8-5.6-2.6-2.1-5.9-2.1-4.6 0-7.4 3.2-2.8 3.2-2.8 8.4 0 5.2 2.8 8.4 2.8 3.2 7.4 3.2 3.5 0 6.2-2.3zm62.4-14.3q5.1 4.9 5.1 12.7 0.1 8.9-5.9 14.3-5.9 5.5-15.5 5.5-9.6 0-15.5-5.5-6-5.4-6-14.2 0-4.7 1.6-9.5 1.7-4.9 5.1-10.6l8.1-13.4h17.1l-9.6 15.8q1.5 0 2.3 0 8.1 0 13.2 4.9zm-11.5 17.6q1.8-1.9 1.8-4.9 0-3-1.8-4.9-1.9-2-4.8-2-3 0-4.8 2-1.8 1.9-1.8 4.9 0 3 1.8 4.9 1.8 1.8 4.8 1.8 2.9 0 4.8-1.8zm48.7-15c6.1 1.8 9.9 7.2 9.9 14.1 0 3.9-1.3 7.2-3.9 9.9-2.6 2.8-5.9 4.1-9.7 4.1h-16.6q0 0-0.1 0 0 0 0 0-0.1-0.1-0.1-0.1 0 0 0-0.1v-51c0-0.1 0.1-0.2 0.2-0.2h14.6c3.6 0 6.5 1.1 8.7 3.5 2.3 2.2 3.5 5.2 3.5 8.9 0 4.9-2.5 8.9-6.5 10.9zm4.6 22.7c2.3-2.3 3.4-5.2 3.4-8.6 0-3.8-1.1-6.9-3.4-9.2-2.4-2.4-5.3-3.6-8.9-3.6h-14.3v24.9h14.9c3.3 0 6.1-1.1 8.3-3.5zm-23.2-44.1v20.8h12.9c3 0 5.5-1 7.4-2.9 1.9-1.9 2.9-4.4 2.9-7.4 0-6.2-4.2-10.5-10.3-10.5zm159.5 49.2q0 0 0 0.1 0.1 0.1 0 0.1 0 0.1-0.1 0.1 0 0-0.1 0h-1.7q-0.1 0-0.1 0-0.1 0-0.1-0.1l-18.6-26.5-8.2 9.7v16.7q0 0.1 0 0.1 0 0 0 0.1-0.1 0-0.1 0 0 0-0.1 0h-1.4q0 0-0.1 0 0 0 0 0-0.1-0.1-0.1-0.1 0 0 0-0.1v-51c0-0.1 0.1-0.2 0.2-0.2h1.4c0.1 0 0.2 0.1 0.2 0.2v31.4l26.7-31.6q0 0 0 0 0.1 0 0.1 0h1.9c0.1 0 0.2 0.1 0.2 0.2q0 0.1-0.1 0.1l-19.3 23zm-42.4-51.1c0.1 0 0.2 0.1 0.2 0.3v51q0 0 0 0.1 0 0 0 0-0.1 0.1-0.1 0.1 0 0-0.1 0h-0.6q-0.1 0-0.1 0-0.1 0-0.1-0.1l-33.4-47.2v47.1q0 0 0 0.1-0.1 0-0.1 0 0 0.1-0.1 0.1 0 0-0.1 0h-1.4q0 0-0.1 0 0 0 0-0.1-0.1 0-0.1 0 0-0.1 0-0.1v-51c0-0.2 0.1-0.3 0.2-0.3h0.9q0.1 0 0.1 0 0.1 0.1 0.1 0.1l33.2 46.9v-46.7c0-0.2 0.1-0.3 0.2-0.3zm-44.4 51.2q0 0 0 0.1 0 0.1 0 0.1-0.1 0.1-0.1 0.1-0.1 0-0.1 0h-1.5q-0.1 0-0.1 0-0.1-0.1-0.1-0.2l-5.9-15.7h-23.8l-5.8 15.8q-0.1 0-0.1 0.1-0.1 0-0.2 0h-1.4q-0.1 0-0.1 0-0.1-0.1-0.1-0.1 0 0 0-0.1-0.1-0.1 0-0.1l19-51q0-0.1 0.1-0.1 0-0.1 0.1-0.1h0.9q0 0 0.1 0.1 0.1 0 0.1 0.1zm-30.9-17.5h22.5l-11.3-30z"/></svg>